<svg width="13" height="19" viewBox="0 0 13 19" fill="none" xmlns="http://www.w3.org/2000/svg">
<path d="M12.742 4.96933C12.0123 2.41016 9.61044 0.358035 6.96533 0.312592C5.90354 0.312592 5.22297 0.425004 4.53071 0.678529C4.23837 0.783766 3.95304 0.91053 3.67707 1.05643C1.24245 2.35515 -0.263699 5.35201 0.465986 8.11927C0.870587 9.65238 1.63068 11.097 2.38843 12.4747C3.15787 13.8714 4.00215 15.2299 4.87684 16.5598C5.31418 17.2295 5.75854 17.8944 6.22629 18.5449C6.39936 18.7841 6.67065 18.9276 6.9209 18.6932C7.05654 18.5664 7.15477 18.3847 7.26235 18.234C7.37695 18.069 7.49388 17.8991 7.60614 17.7317C8.50889 16.4234 9.36955 15.0841 10.1764 13.7112C10.9739 12.3646 11.734 10.9726 12.3257 9.51127C12.6204 8.78179 12.894 8.01164 12.9759 7.21758C13.0507 6.46657 12.9455 5.69642 12.742 4.96933ZM6.61452 9.15729C5.31886 9.13816 4.30385 8.06187 4.32724 6.7464C4.34595 5.46443 5.42176 4.40966 6.67767 4.43597C7.94058 4.46467 8.94858 5.51704 8.9556 6.8062C8.93688 8.13362 7.8751 9.17164 6.61452 9.15729Z" fill="white"/>
</svg>
