<svg width="20" height="20" viewBox="0 0 20 20" fill="none" xmlns="http://www.w3.org/2000/svg">
<path d="M10.078 0.312592C4.64985 0.312592 0.249878 4.71256 0.249878 10.1407C0.249878 15.5689 4.64985 19.9688 10.078 19.9688C15.5062 19.9688 19.9061 15.5689 19.9061 10.1407C19.9061 4.71256 15.5062 0.312592 10.078 0.312592ZM14.7673 15.0985C14.6029 15.2796 14.376 15.3711 14.1512 15.3711C13.9514 15.3711 13.7516 15.3004 13.5913 15.1547L9.24547 11.2147V2.91844C9.24547 2.45846 9.61803 2.0859 10.078 2.0859C10.538 2.0859 10.9105 2.45846 10.9105 2.91844V10.4758L14.709 13.9204C15.0503 14.2306 15.0774 14.7571 14.7673 15.0985Z" fill="white"/>
</svg>
