<svg width="13" height="23" viewBox="0 0 13 23" fill="none" xmlns="http://www.w3.org/2000/svg">
<path d="M8.65921 5.47929C8.64979 5.55298 8.60273 5.71461 8.63097 5.78354C8.59567 6.00698 8.62156 6.25893 8.62156 6.4895V8.48138C9.86879 8.48138 11.1207 8.48138 12.3703 8.48375C12.1585 9.79345 11.982 11.1103 11.7702 12.4224C10.7277 12.4224 9.68053 12.4033 8.63568 12.4224C8.63333 12.4485 8.62156 12.4723 8.62156 12.496V21.8874C8.62156 21.9111 8.62391 21.9325 8.62861 21.9563C8.52978 21.9729 8.43329 21.9896 8.3321 22.0062C8.24503 22.0229 8.15326 22.0324 8.06384 22.049C7.6026 22.0894 7.14606 22.1108 6.68482 22.1251H6.33889C5.68469 22.1156 5.04931 22.0514 4.40216 21.9634V12.4271H0.975817C0.973463 12.4033 0.96875 12.3867 0.96875 12.3748V8.48613H0.971106C0.996991 8.48613 1.02287 8.48375 1.05346 8.48375H4.32215C4.34803 8.48375 4.37392 8.47425 4.39981 8.46949V6.64875C4.39981 6.0355 4.3598 5.40561 4.42569 4.79473C4.54335 3.68232 4.85634 2.61982 5.5882 1.75699C6.32713 0.882275 7.34844 0.444916 8.44976 0.245252C9.00748 0.143044 9.61464 0.14542 10.1818 0.171567C10.7654 0.197713 11.3466 0.271399 11.9255 0.342707C12.0856 0.361723 12.2479 0.378361 12.4079 0.404507C12.5703 0.433031 12.5256 0.54237 12.5256 0.692118C12.5256 1.02964 12.5233 1.36242 12.5256 1.69519C12.5256 2.39401 12.528 3.09046 12.528 3.7869C12.0667 3.7869 11.6031 3.77977 11.1442 3.78453C10.7136 3.78691 10.2782 3.78453 9.86407 3.9319C9.4852 4.06501 9.1581 4.30746 8.94396 4.65211C8.84041 4.81375 8.7651 4.9944 8.71568 5.18217C8.69215 5.27963 8.67097 5.38184 8.65921 5.47929Z" fill="white"/>
</svg>
