<svg width="23" height="23" viewBox="0 0 23 23" fill="none" xmlns="http://www.w3.org/2000/svg">
<path d="M22.4062 13.625V22.1251H17.6982V14.1973C17.6982 12.205 17.0136 10.8411 15.3092 10.8411C14.0099 10.8411 13.2346 11.7618 12.8946 12.6483C12.7712 12.9625 12.7386 13.4058 12.7386 13.849V22.1251H8.03051C8.03051 22.1251 8.08872 8.69538 8.03051 7.30224H12.7386V9.409C12.7246 9.41874 12.7153 9.43823 12.7107 9.45284H12.7386V9.409C13.358 8.39337 14.4803 6.95396 16.9857 6.95396C20.0871 6.95396 22.4062 9.07046 22.4062 13.625ZM3.0989 0.156311C1.48995 0.156311 0.4375 1.26206 0.4375 2.71608C0.4375 4.13602 1.45735 5.27586 3.03603 5.27586H3.06863C4.71017 5.27586 5.73468 4.13602 5.73468 2.71608C5.70208 1.26206 4.70784 0.156311 3.0989 0.156311ZM0.712253 7.30224V22.1251H5.425V7.30224H0.712253Z" fill="white"/>
</svg>
