<svg width="20" height="20" viewBox="0 0 20 20" fill="none" xmlns="http://www.w3.org/2000/svg">
<path d="M18.9959 18.5089C17.7568 20.4641 15.5727 20.0969 13.6422 19.4579C11.5874 18.7759 9.66886 17.6504 8.04697 16.2269C6.14759 14.5554 4.25061 12.7933 2.76268 10.7402C1.43025 8.90182 0.119342 6.4482 0.00212637 4.13288C-0.00265796 4.00889 0.00212637 3.8849 0.00212637 3.7609C-0.0505012 2.21815 1.2628 0.529946 2.87033 0.320112C3.5497 0.229502 4.00421 0.978226 4.37022 1.4575C5.04241 2.32307 5.76485 3.27209 6.28873 4.23541C6.81261 5.20351 6.62842 5.84731 6.00167 6.67234C5.107 7.84788 5.15485 8.58468 6.07822 9.74831C6.73128 10.5733 7.54701 11.2911 8.30054 12.0255C9.1665 12.872 10.0683 14.007 11.1855 14.5268C12.1711 14.987 12.8026 14.4219 13.5776 13.8615C14.5943 13.1199 15.3837 13.4466 16.3956 14.0761C17.3668 14.6818 18.3644 15.3256 19.1729 16.1363C20.0389 16.9995 19.5915 17.567 18.9959 18.5089Z" fill="white"/>
</svg>
